<svg width="211" height="42" viewBox="0 0 211 42" fill="none" xmlns="http://www.w3.org/2000/svg">
<path d="M0 11C0 5.47715 4.47715 1 10 1H38V29C38 34.5228 33.5228 39 28 39H0V11Z" fill="#0C0D10"/>
<path d="M51.2642 2.45455H55.0568L59.0625 12.2273H59.233L63.2386 2.45455H67.0312V17H64.0483V7.53267H63.9276L60.1634 16.929H58.1321L54.3679 7.49716H54.2472V17H51.2642V2.45455ZM74.4371 17.2131C73.3339 17.2131 72.3799 16.9787 71.5749 16.5099C70.7747 16.0365 70.1568 15.3783 69.7212 14.5355C69.2856 13.688 69.0678 12.7055 69.0678 11.5881C69.0678 10.4612 69.2856 9.47633 69.7212 8.63352C70.1568 7.78598 70.7747 7.12784 71.5749 6.65909C72.3799 6.18561 73.3339 5.94886 74.4371 5.94886C75.5404 5.94886 76.4921 6.18561 77.2923 6.65909C78.0972 7.12784 78.7174 7.78598 79.1531 8.63352C79.5887 9.47633 79.8065 10.4612 79.8065 11.5881C79.8065 12.7055 79.5887 13.688 79.1531 14.5355C78.7174 15.3783 78.0972 16.0365 77.2923 16.5099C76.4921 16.9787 75.5404 17.2131 74.4371 17.2131ZM74.4513 14.8693C74.9532 14.8693 75.3723 14.7273 75.7085 14.4432C76.0446 14.1544 76.2979 13.7614 76.4684 13.2642C76.6436 12.767 76.7312 12.2012 76.7312 11.5668C76.7312 10.9323 76.6436 10.3665 76.4684 9.86932C76.2979 9.37216 76.0446 8.97917 75.7085 8.69034C75.3723 8.40151 74.9532 8.2571 74.4513 8.2571C73.9447 8.2571 73.5186 8.40151 73.1729 8.69034C72.832 8.97917 72.574 9.37216 72.3988 9.86932C72.2283 10.3665 72.1431 10.9323 72.1431 11.5668C72.1431 12.2012 72.2283 12.767 72.3988 13.2642C72.574 13.7614 72.832 14.1544 73.1729 14.4432C73.5186 14.7273 73.9447 14.8693 74.4513 14.8693ZM81.1346 17L81.1204 14.5994H81.4826C81.7383 14.5994 81.9585 14.5379 82.1431 14.4148C82.3325 14.2869 82.4888 14.081 82.6119 13.7969C82.735 13.5128 82.832 13.1364 82.9031 12.6676C82.9741 12.1941 83.0214 11.6117 83.0451 10.9205L83.2227 6.09091H91.5181V17H88.6346V8.47017H85.9428L85.7724 11.8011C85.7298 12.715 85.6185 13.5009 85.4386 14.1591C85.2634 14.8172 85.0195 15.357 84.707 15.7784C84.3945 16.1951 84.0181 16.5028 83.5778 16.7017C83.1374 16.9006 82.6261 17 82.0437 17H81.1346ZM98.7926 17.2131C97.6894 17.2131 96.7353 16.9787 95.9304 16.5099C95.1302 16.0365 94.5123 15.3783 94.0767 14.5355C93.6411 13.688 93.4233 12.7055 93.4233 11.5881C93.4233 10.4612 93.6411 9.47633 94.0767 8.63352C94.5123 7.78598 95.1302 7.12784 95.9304 6.65909C96.7353 6.18561 97.6894 5.94886 98.7926 5.94886C99.8958 5.94886 100.848 6.18561 101.648 6.65909C102.453 7.12784 103.073 7.78598 103.509 8.63352C103.944 9.47633 104.162 10.4612 104.162 11.5881C104.162 12.7055 103.944 13.688 103.509 14.5355C103.073 15.3783 102.453 16.0365 101.648 16.5099C100.848 16.9787 99.8958 17.2131 98.7926 17.2131ZM98.8068 14.8693C99.3087 14.8693 99.7277 14.7273 100.064 14.4432C100.4 14.1544 100.653 13.7614 100.824 13.2642C100.999 12.767 101.087 12.2012 101.087 11.5668C101.087 10.9323 100.999 10.3665 100.824 9.86932C100.653 9.37216 100.4 8.97917 100.064 8.69034C99.7277 8.40151 99.3087 8.2571 98.8068 8.2571C98.3002 8.2571 97.8741 8.40151 97.5284 8.69034C97.1875 8.97917 96.9295 9.37216 96.7543 9.86932C96.5838 10.3665 96.4986 10.9323 96.4986 11.5668C96.4986 12.2012 96.5838 12.767 96.7543 13.2642C96.9295 13.7614 97.1875 14.1544 97.5284 14.4432C97.8741 14.7273 98.3002 14.8693 98.8068 14.8693ZM105.277 20.196V14.5994H106.115C106.357 14.4479 106.551 14.2064 106.697 13.875C106.849 13.5436 106.972 13.1529 107.067 12.7031C107.166 12.2533 107.242 11.768 107.294 11.2472C107.351 10.7216 107.401 10.1913 107.443 9.65625L107.727 6.09091H116.094V14.5994H117.784V20.196H114.901V17H108.232V20.196H105.277ZM109.126 14.5994H113.239V8.42045H110.298L110.185 9.65625C110.104 10.821 109.988 11.8106 109.837 12.625C109.685 13.4347 109.448 14.0928 109.126 14.5994ZM124.519 17.2131C123.397 17.2131 122.431 16.9858 121.621 16.5312C120.816 16.072 120.196 15.4233 119.76 14.5852C119.325 13.7424 119.107 12.7457 119.107 11.5952C119.107 10.473 119.325 9.48816 119.76 8.64062C120.196 7.79309 120.809 7.13258 121.6 6.65909C122.395 6.18561 123.328 5.94886 124.398 5.94886C125.118 5.94886 125.788 6.06487 126.408 6.29688C127.033 6.52415 127.578 6.86742 128.042 7.3267C128.51 7.78598 128.875 8.36364 129.135 9.05966C129.396 9.75095 129.526 10.5606 129.526 11.4886V12.3196H120.314V10.4446H126.678C126.678 10.009 126.583 9.62311 126.394 9.28693C126.204 8.95076 125.942 8.68797 125.605 8.49858C125.274 8.30445 124.888 8.20739 124.448 8.20739C123.989 8.20739 123.581 8.31392 123.226 8.52699C122.876 8.73532 122.601 9.01705 122.402 9.37216C122.203 9.72254 122.102 10.1132 122.097 10.544V12.3267C122.097 12.8665 122.196 13.3329 122.395 13.7259C122.599 14.1188 122.885 14.4219 123.255 14.6349C123.624 14.848 124.062 14.9545 124.569 14.9545C124.905 14.9545 125.212 14.9072 125.492 14.8125C125.771 14.7178 126.01 14.5758 126.209 14.3864C126.408 14.197 126.56 13.965 126.664 13.6903L129.462 13.875C129.32 14.5473 129.029 15.1345 128.588 15.6364C128.153 16.1335 127.589 16.5218 126.898 16.8011C126.212 17.0758 125.418 17.2131 124.519 17.2131ZM122.161 4.59943C121.754 4.59943 121.403 4.45739 121.11 4.1733C120.816 3.88447 120.669 3.54356 120.669 3.15057C120.669 2.74811 120.816 2.4072 121.11 2.12784C121.403 1.84848 121.754 1.70881 122.161 1.70881C122.573 1.70881 122.921 1.84848 123.205 2.12784C123.494 2.4072 123.638 2.74811 123.638 3.15057C123.638 3.54356 123.494 3.88447 123.205 4.1733C122.921 4.45739 122.573 4.59943 122.161 4.59943ZM126.507 4.59943C126.1 4.59943 125.75 4.45739 125.456 4.1733C125.163 3.88447 125.016 3.54356 125.016 3.15057C125.016 2.74811 125.163 2.4072 125.456 2.12784C125.75 1.84848 126.1 1.70881 126.507 1.70881C126.919 1.70881 127.267 1.84848 127.551 2.12784C127.84 2.4072 127.985 2.74811 127.985 3.15057C127.985 3.54356 127.84 3.88447 127.551 4.1733C127.267 4.45739 126.919 4.59943 126.507 4.59943ZM130.595 17L134.409 11.3253L130.616 6.09091H134.068L136.902 10.3594H137.37V6.09091H140.396V10.3594H140.85L143.684 6.09091H147.136L143.35 11.3253L147.157 17H143.627L140.822 12.7386H140.396V17H137.37V12.7386H136.944L134.125 17H130.595ZM156.456 10.3381V12.7173H150.76V10.3381H156.456ZM151.754 6.09091V17H148.864V6.09091H151.754ZM158.352 6.09091V17H155.483V6.09091H158.352ZM162.596 9.44318H165.856C167.3 9.44318 168.427 9.78883 169.237 10.4801C170.046 11.1667 170.451 12.0852 170.451 13.2358C170.451 13.9839 170.269 14.642 169.904 15.2102C169.54 15.7737 169.014 16.214 168.327 16.5312C167.641 16.8438 166.817 17 165.856 17H160.7V6.09091H163.59V14.6207H165.856C166.362 14.6207 166.779 14.4929 167.106 14.2372C167.433 13.9815 167.598 13.6548 167.603 13.2571C167.598 12.8357 167.433 12.4924 167.106 12.2273C166.779 11.9574 166.362 11.8224 165.856 11.8224H162.596V9.44318ZM171.623 17V6.09091H174.648V17H171.623ZM179.957 13.0085L183.885 6.09091H186.868V17H183.984V10.0611L180.071 17H177.067V6.09091H179.957V13.0085ZM183.366 2.28409H185.476C185.471 3.14583 185.152 3.83949 184.517 4.36506C183.887 4.89062 183.035 5.15341 181.96 5.15341C180.881 5.15341 180.026 4.89062 179.396 4.36506C178.767 3.83949 178.452 3.14583 178.452 2.28409H180.547C180.542 2.6108 180.646 2.90436 180.859 3.16477C181.077 3.42519 181.444 3.5554 181.96 3.5554C182.462 3.5554 182.822 3.42756 183.04 3.17188C183.258 2.91619 183.366 2.62026 183.366 2.28409ZM51.2074 37V26.0909H60.7457V37H57.8551V28.4702H54.0625V37H51.2074ZM68.0895 37.2131C66.9863 37.2131 66.0322 36.9787 65.2273 36.5099C64.4271 36.0365 63.8092 35.3783 63.3736 34.5355C62.938 33.688 62.7202 32.7055 62.7202 31.5881C62.7202 30.4612 62.938 29.4763 63.3736 28.6335C63.8092 27.786 64.4271 27.1278 65.2273 26.6591C66.0322 26.1856 66.9863 25.9489 68.0895 25.9489C69.1927 25.9489 70.1444 26.1856 70.9446 26.6591C71.7495 27.1278 72.3698 27.786 72.8054 28.6335C73.241 29.4763 73.4588 30.4612 73.4588 31.5881C73.4588 32.7055 73.241 33.688 72.8054 34.5355C72.3698 35.3783 71.7495 36.0365 70.9446 36.5099C70.1444 36.9787 69.1927 37.2131 68.0895 37.2131ZM68.1037 34.8693C68.6056 34.8693 69.0246 34.7273 69.3608 34.4432C69.697 34.1544 69.9503 33.7614 70.1207 33.2642C70.2959 32.767 70.3835 32.2012 70.3835 31.5668C70.3835 30.9323 70.2959 30.3665 70.1207 29.8693C69.9503 29.3722 69.697 28.9792 69.3608 28.6903C69.0246 28.4015 68.6056 28.2571 68.1037 28.2571C67.5971 28.2571 67.1709 28.4015 66.8253 28.6903C66.4844 28.9792 66.2263 29.3722 66.0511 29.8693C65.8807 30.3665 65.7955 30.9323 65.7955 31.5668C65.7955 32.2012 65.8807 32.767 66.0511 33.2642C66.2263 33.7614 66.4844 34.1544 66.8253 34.4432C67.1709 34.7273 67.5971 34.8693 68.1037 34.8693ZM75.4261 41.0909V26.0909H78.4091V27.9233H78.544C78.6766 27.6297 78.8684 27.3314 79.1193 27.0284C79.375 26.7206 79.7064 26.465 80.1136 26.2614C80.5256 26.053 81.0369 25.9489 81.6477 25.9489C82.4432 25.9489 83.1771 26.1572 83.8494 26.5739C84.5218 26.9858 85.0592 27.6084 85.4616 28.4418C85.8641 29.2704 86.0653 30.3097 86.0653 31.5597C86.0653 32.7765 85.8688 33.804 85.4759 34.642C85.0876 35.4754 84.5573 36.1075 83.8849 36.5384C83.2173 36.9645 82.4692 37.1776 81.6406 37.1776C81.0535 37.1776 80.554 37.0805 80.142 36.8864C79.7348 36.6922 79.401 36.4484 79.1406 36.1548C78.8802 35.8565 78.6813 35.5559 78.544 35.2528H78.4517V41.0909H75.4261ZM78.3878 31.5455C78.3878 32.1941 78.4777 32.7599 78.6577 33.2429C78.8376 33.7259 79.098 34.1023 79.4389 34.3722C79.7798 34.6373 80.1941 34.7699 80.6818 34.7699C81.1742 34.7699 81.5909 34.6349 81.9318 34.3651C82.2727 34.0904 82.5308 33.7116 82.706 33.2287C82.8859 32.741 82.9759 32.1799 82.9759 31.5455C82.9759 30.9157 82.8883 30.3617 82.7131 29.8835C82.5379 29.4053 82.2798 29.0312 81.9389 28.7614C81.598 28.4915 81.179 28.3565 80.6818 28.3565C80.1894 28.3565 79.7727 28.4867 79.4318 28.7472C79.0956 29.0076 78.8376 29.3769 78.6577 29.8551C78.4777 30.3333 78.3878 30.8968 78.3878 31.5455ZM87.0259 28.4702V26.0909H96.9123V28.4702H93.3967V37H90.5131V28.4702H87.0259ZM101.467 37.206C100.771 37.206 100.15 37.0852 99.6058 36.8438C99.0613 36.5975 98.6304 36.2353 98.3132 35.7571C98.0007 35.2741 97.8445 34.6728 97.8445 33.9531C97.8445 33.3471 97.9557 32.8381 98.1783 32.4261C98.4008 32.0142 98.7038 31.6828 99.0874 31.4318C99.4709 31.1809 99.9065 30.9915 100.394 30.8636C100.887 30.7358 101.403 30.6458 101.942 30.5938C102.577 30.5275 103.088 30.4659 103.477 30.4091C103.865 30.3475 104.147 30.2576 104.322 30.1392C104.497 30.0208 104.585 29.8456 104.585 29.6136V29.571C104.585 29.1212 104.442 28.7732 104.158 28.527C103.879 28.2808 103.481 28.1577 102.965 28.1577C102.421 28.1577 101.987 28.2784 101.665 28.5199C101.344 28.7566 101.13 29.0549 101.026 29.4148L98.228 29.1875C98.37 28.5246 98.6494 27.9517 99.0661 27.4688C99.4827 26.9811 100.02 26.607 100.678 26.3466C101.341 26.0814 102.108 25.9489 102.979 25.9489C103.585 25.9489 104.165 26.0199 104.719 26.1619C105.278 26.304 105.773 26.5241 106.204 26.8224C106.639 27.1207 106.983 27.5043 107.234 27.973C107.485 28.437 107.61 28.9934 107.61 29.642V37H104.741V35.4872H104.656C104.48 35.8281 104.246 36.1288 103.952 36.3892C103.659 36.6449 103.306 36.8461 102.894 36.9929C102.482 37.1349 102.006 37.206 101.467 37.206ZM102.333 35.1179C102.778 35.1179 103.171 35.0303 103.512 34.8551C103.853 34.6752 104.121 34.4337 104.315 34.1307C104.509 33.8277 104.606 33.4844 104.606 33.1009V31.9432C104.511 32.0047 104.381 32.0616 104.215 32.1136C104.054 32.161 103.872 32.206 103.668 32.2486C103.465 32.2865 103.261 32.322 103.058 32.3551C102.854 32.3835 102.669 32.4096 102.504 32.4332C102.148 32.4853 101.838 32.5682 101.573 32.6818C101.308 32.7955 101.102 32.9493 100.955 33.1435C100.808 33.3329 100.735 33.5696 100.735 33.8537C100.735 34.2656 100.884 34.5805 101.183 34.7983C101.486 35.0114 101.869 35.1179 102.333 35.1179ZM109.318 37L109.304 34.5994H109.666C109.922 34.5994 110.142 34.5379 110.327 34.4148C110.516 34.2869 110.672 34.081 110.795 33.7969C110.919 33.5128 111.016 33.1364 111.087 32.6676C111.158 32.1941 111.205 31.6117 111.229 30.9205L111.406 26.0909H119.702V37H116.818V28.4702H114.126L113.956 31.8011C113.913 32.715 113.802 33.5009 113.622 34.1591C113.447 34.8172 113.203 35.357 112.891 35.7784C112.578 36.1951 112.202 36.5028 111.761 36.7017C111.321 36.9006 110.81 37 110.227 37H109.318Z" fill="#0C0D10"/>
<path d="M9 25.5L28.5 19.0048L28.5 31.9952L9 25.5Z" fill="#F3FFEF"/>
<path d="M28 14.5L8.5 8.00481L8.5 20.9952L28 14.5Z" fill="#F3FFEF"/>
</svg>
