<svg width="30" height="42" viewBox="0 0 30 42" fill="none" xmlns="http://www.w3.org/2000/svg">
<path d="M15.0001 0.166626C6.94592 0.166626 0.416748 6.69683 0.416748 14.75C0.416748 22.8041 15.0001 41.8333 15.0001 41.8333C15.0001 41.8333 29.5834 22.8041 29.5834 14.75C29.5834 6.69683 23.0542 0.166626 15.0001 0.166626ZM15.0001 22.0416C13.0662 22.0416 11.2115 21.2734 9.84409 19.9059C8.47664 18.5385 7.70841 16.6838 7.70841 14.75C7.70841 12.8161 8.47664 10.9614 9.84409 9.59397C11.2115 8.22652 13.0662 7.45829 15.0001 7.45829C16.934 7.45829 18.7886 8.22652 20.1561 9.59397C21.5235 10.9614 22.2917 12.8161 22.2917 14.75C22.2917 16.6838 21.5235 18.5385 20.1561 19.9059C18.7886 21.2734 16.934 22.0416 15.0001 22.0416Z" fill="#1E46E6"/>
</svg>
